<?xml version="1.0" encoding="utf-8"?>
<!-- Generator: Adobe Illustrator 24.1.3, SVG Export Plug-In . SVG Version: 6.00 Build 0)  -->
<svg version="1.1" id="圖層_1" xmlns="http://www.w3.org/2000/svg" xmlns:xlink="http://www.w3.org/1999/xlink" x="0px" y="0px"
	 viewBox="0 0 400 400" style="enable-background:new 0 0 400 400;" xml:space="preserve">
<style type="text/css">
	.st0{enable-background:new    ;}
	.st1{fill:#FFFFFF;}
</style>
<g class="st0">
	<path class="st1" d="M23.1,192.3c0.8-1.4,1.9-2.5,3.3-3.2c1.5-0.7,3.2-1.1,5.3-1.1l11.6,0.2l-0.1,3.9l-5.4-0.1l-0.2,10.9L43,203
		l-0.1,3.8l-11.6-0.2c-2.1,0-3.8-0.4-5.2-1.2s-2.5-1.9-3.2-3.3c-0.7-1.4-1.1-3.1-1-4.9C21.9,195.3,22.3,193.7,23.1,192.3z
		 M34.6,191.9l-3.3-0.1c-1.9,0-3.4,0.4-4.4,1.4c-1,0.9-1.5,2.3-1.5,4s0.4,3.1,1.4,4c1,1,2.4,1.5,4.4,1.5l3.3,0.1L34.6,191.9z"/>
</g>
<g class="st0">
	<path class="st1" d="M33.6,158.8c1.4-1,3.2-1.2,5.5-0.7l9,1.9l-0.8,3.7l-8.5-1.8c-1.4-0.3-2.5-0.2-3.3,0.3s-1.4,1.3-1.6,2.5
		c-0.3,1.4-0.1,2.5,0.5,3.5s1.7,1.6,3.3,1.9l7.9,1.7l-0.8,3.7l-15.7-3.3l0.7-3.5l2,0.4c-0.6-0.8-1-1.6-1.2-2.6s-0.1-2.1,0.1-3.2
		C31.3,161.2,32.2,159.7,33.6,158.8z"/>
</g>
<g class="st0">
	<path class="st1" d="M34,141c-0.6,0.3-1.1,0.3-1.7,0.1c-0.6-0.2-1-0.6-1.3-1.2c-0.2-0.6-0.3-1.2,0-1.8c0.2-0.6,0.6-1.1,1.2-1.4
		c0.5-0.3,1.1-0.3,1.7-0.1c0.6,0.2,1.1,0.6,1.3,1.2c0.3,0.6,0.3,1.2,0,1.9C34.9,140.3,34.5,140.7,34,141z M37,142.3l1.3-3.5l15,5.5
		l-1.3,3.5L37,142.3z"/>
</g>
<g class="st0">
	<path class="st1" d="M58,103.4c1.6-0.4,3.4,0,5.4,1.1l7.9,4.6l-1.9,3.2l-7.5-4.4c-1.2-0.7-2.3-1-3.2-0.8s-1.7,0.8-2.3,1.8
		c-0.6,1.1-0.8,2.2-0.5,3.2c0.3,1.1,1.2,2,2.5,2.8l7,4.1l-1.9,3.2l-7.5-4.4c-1.2-0.7-2.3-1-3.2-0.8s-1.7,0.8-2.3,1.8
		c-0.6,1.1-0.8,2.2-0.5,3.2c0.3,1.1,1.2,2,2.5,2.8l7,4.1l-1.9,3.2L44,124.2l1.8-3.1l1.8,1c-0.3-0.9-0.4-1.8-0.3-2.8
		c0.1-1,0.5-1.9,1-2.9c0.6-1,1.3-1.8,2.2-2.4s1.8-0.9,2.8-0.9c-0.4-1-0.5-2.1-0.4-3.2s0.5-2.2,1.1-3.3C55.1,105,56.4,103.9,58,103.4
		z"/>
</g>
<g class="st0">
	<path class="st1" d="M78.2,77.1L90,87.9l-2.4,2.6l-1.5-1.4c0.1,1,0,1.9-0.3,2.8s-0.9,1.8-1.6,2.6c-1.1,1.1-2.3,1.9-3.6,2.4
		c-1.3,0.4-2.7,0.5-4.1,0.2s-2.7-1.1-3.9-2.2s-2-2.3-2.5-3.7c-0.4-1.3-0.5-2.7-0.2-4.1s1-2.6,2.1-3.8c0.7-0.8,1.5-1.3,2.3-1.7
		c0.9-0.4,1.8-0.6,2.7-0.6l-1.4-1.3L78.2,77.1z M83.4,88.7c-0.1-1.3-0.7-2.4-1.8-3.5c-1.1-1-2.3-1.5-3.6-1.5c-1.3,0-2.4,0.6-3.3,1.6
		s-1.4,2.2-1.3,3.4c0.1,1.3,0.7,2.4,1.8,3.4c1.1,1,2.3,1.5,3.6,1.5c1.3,0,2.4-0.6,3.3-1.6C83,91.1,83.4,90,83.4,88.7z"/>
</g>
<g class="st0">
	<path class="st1" d="M106.2,73.1c-0.1,0.6-0.4,1.1-0.8,1.6s-0.8,1-1.4,1.5c-1.4,1.1-2.7,1.6-4.1,1.5c-1.3-0.1-2.5-0.9-3.6-2.3
		l-8.9-11.2l2.9-2.3l2.3,2.9L96,62l1.9,2.3L94.5,67l4.7,6c0.5,0.6,1,1,1.6,1c0.6,0.1,1.1-0.1,1.7-0.5c0.7-0.5,1.1-1.1,1.2-1.8
		L106.2,73.1z"/>
</g>
<g class="st0">
	<path class="st1" d="M106,51c-0.6-0.1-1.1-0.5-1.4-1s-0.4-1.1-0.3-1.7c0.2-0.6,0.5-1.1,1.1-1.4c0.6-0.4,1.2-0.5,1.8-0.4
		c0.6,0.1,1.1,0.4,1.4,1s0.4,1.2,0.3,1.8s-0.5,1.1-1.1,1.5C107.2,51,106.6,51.1,106,51z M107.6,53.9l3.2-2l8.4,13.6l-3.2,2
		L107.6,53.9z"/>
</g>
<g class="st0">
	<path class="st1" d="M132.7,57.3c-1.5-0.1-2.8-0.6-4-1.5s-2.1-2-2.7-3.4s-0.9-2.9-0.7-4.3c0.2-1.4,0.7-2.7,1.6-3.9s2.1-2.1,3.6-2.7
		c1.5-0.7,3-0.9,4.5-0.8c1.5,0.1,2.8,0.6,4,1.4c1.2,0.8,2.1,2,2.7,3.4c0.6,1.4,0.9,2.9,0.7,4.3c-0.2,1.4-0.7,2.7-1.6,3.9
		c-0.9,1.2-2.1,2.1-3.6,2.7C135.6,57.2,134.2,57.4,132.7,57.3z M138.4,50.9c0.5-1.2,0.4-2.5-0.2-3.9c-0.6-1.4-1.5-2.3-2.7-2.8
		s-2.4-0.4-3.7,0.1s-2.1,1.4-2.6,2.6s-0.4,2.5,0.2,3.9c0.6,1.4,1.5,2.3,2.7,2.8s2.4,0.5,3.7-0.1C137.1,53,138,52.1,138.4,50.9z"/>
</g>
<g class="st0">
	<path class="st1" d="M160.7,31.3l0.9,3.5c-0.3,0-0.6,0.1-0.9,0.1c-1.4,0.4-2.4,1.1-3,2.1s-0.7,2.3-0.2,3.9l2,7.5l-3.6,1l-4.2-15.5
		l3.5-0.9l0.6,2.3C156.4,33.3,158,32,160.7,31.3z"/>
</g>
<g class="st0">
	<path class="st1" d="M205.5,34.1l-5.3,0.1l0.1,5.2l-3.2,0.1l-0.1-5.2l-5.3,0.1l-0.1-3l5.3-0.1l-0.1-5.2L200,26l0.1,5.2l5.3-0.1
		L205.5,34.1z"/>
</g>
<g class="st0">
	<path class="st1" d="M235.3,46.8c-1.1-0.6-2-1.3-2.6-2l2.1-2.4c0.6,0.6,1.3,1.2,2.2,1.8c0.9,0.5,1.8,0.9,2.8,1.2
		c2.2,0.6,3.4,0.3,3.7-0.9c0.1-0.5,0-1-0.5-1.3c-0.5-0.4-1.3-0.8-2.5-1.3s-2.2-1-3-1.5c-0.7-0.5-1.3-1.1-1.8-1.9
		c-0.4-0.8-0.5-1.7-0.2-2.9c0.4-1.5,1.3-2.5,2.8-3.1c1.5-0.6,3.2-0.6,5.3,0c1.1,0.3,2.1,0.7,3.1,1.2s1.8,1.1,2.4,1.6l-2.1,2.4
		c-1.1-1.1-2.5-1.9-4.2-2.3c-1.1-0.3-1.9-0.3-2.6-0.1c-0.6,0.2-1,0.5-1.2,1.1c-0.1,0.6,0,1.1,0.6,1.5s1.4,0.9,2.6,1.4
		c1.2,0.5,2.2,1,2.9,1.5s1.3,1.1,1.7,1.8s0.5,1.7,0.2,2.8c-0.4,1.5-1.3,2.5-2.8,3s-3.3,0.5-5.5,0C237.6,47.9,236.4,47.4,235.3,46.8z
		"/>
</g>
<g class="st0">
	<path class="st1" d="M259.4,53.9c-0.9-1.2-1.4-2.5-1.6-3.9s0.1-2.9,0.7-4.3s1.5-2.6,2.7-3.4c1.2-0.8,2.5-1.3,4-1.4
		c1.5-0.1,3,0.2,4.4,0.8c1.5,0.7,2.7,1.6,3.6,2.7c0.9,1.2,1.4,2.5,1.6,3.9s-0.1,2.9-0.7,4.3c-0.6,1.4-1.5,2.6-2.7,3.4
		c-1.2,0.8-2.5,1.3-4,1.4s-3-0.2-4.5-0.8C261.5,55.9,260.3,55,259.4,53.9z M268,53.8c1.2-0.5,2.1-1.4,2.7-2.8s0.7-2.7,0.2-3.9
		s-1.3-2.1-2.6-2.6c-1.3-0.6-2.5-0.6-3.7-0.1s-2.1,1.4-2.7,2.8c-0.6,1.4-0.7,2.7-0.2,3.9c0.4,1.2,1.3,2.1,2.6,2.6
		S266.8,54.2,268,53.8z"/>
</g>
<g class="st0">
	<path class="st1" d="M293,53.3l-0.5,0.8l3.7,2.3l-1.6,2.5l-3.7-2.3L284,67.5l-3.2-2l9-14.3c0.9-1.4,2-2.3,3.4-2.6s2.8,0,4.4,1
		c1.2,0.8,2,1.6,2.4,2.5l-2.4,1.8c-0.3-0.7-0.7-1.2-1.4-1.6C295.1,51.6,294,51.9,293,53.3z"/>
</g>
<g class="st0">
	<path class="st1" d="M303.9,81.2c-0.6,0-1.2-0.1-1.8-0.4c-0.6-0.3-1.2-0.6-1.7-1.1c-1.4-1.1-2.1-2.3-2.3-3.6
		c-0.2-1.3,0.3-2.7,1.4-4l9.1-11.1l2.9,2.4l-2.3,2.8l3.3,2.7l-1.9,2.3l-3.3-2.7l-4.8,5.9c-0.5,0.6-0.7,1.2-0.7,1.8
		c0,0.6,0.3,1.1,0.9,1.5c0.7,0.5,1.3,0.8,2,0.8L303.9,81.2z"/>
</g>
<g class="st0">
	<path class="st1" d="M339.7,97.4l-6.7,5.8c-1.8,1.5-3.6,2.2-5.3,2.1c-1.8-0.1-3.4-1-4.9-2.7c-1.6-1.9-2.1-3.8-1.6-5.7
		c-1,0.1-1.9,0-2.8-0.4s-1.7-1.1-2.5-2c-1.5-1.7-2.1-3.5-1.9-5.2c0.2-1.8,1.2-3.4,3-4.9l6.7-5.8l2.4,2.8l-6.5,5.5
		c-1.2,1-1.8,1.9-2,2.8s0.1,1.7,0.8,2.6s1.6,1.3,2.5,1.2s1.9-0.6,3.1-1.5l6.5-5.5l2.4,2.8l-6.5,5.5c-1.1,1-1.8,1.9-2,2.8
		s0.1,1.8,0.8,2.7c0.8,0.9,1.6,1.3,2.5,1.2c0.9-0.1,1.9-0.6,3.1-1.6l6.5-5.5L339.7,97.4z"/>
</g>
<g class="st0">
	<path class="st1" d="M355.8,124.5l-14.1,7.7l-1.7-3.1l1.8-1c-1-0.2-1.8-0.6-2.6-1.2c-0.8-0.6-1.4-1.4-1.9-2.4
		c-0.7-1.4-1.1-2.8-1.1-4.2c0-1.4,0.4-2.7,1.2-3.9c0.8-1.2,1.9-2.2,3.3-3s2.9-1.2,4.3-1.2s2.7,0.4,3.9,1.2c1.2,0.8,2.2,1.8,2.9,3.2
		c0.5,0.9,0.8,1.8,0.9,2.8c0.1,0.9,0,1.9-0.3,2.8l1.7-0.9L355.8,124.5z M343.2,125.7c1.2,0.4,2.5,0.2,3.8-0.6
		c1.3-0.7,2.2-1.7,2.5-2.9c0.4-1.2,0.2-2.5-0.4-3.7c-0.7-1.2-1.6-2-2.8-2.3c-1.2-0.3-2.5-0.2-3.8,0.6c-1.3,0.7-2.2,1.7-2.6,2.9
		c-0.4,1.2-0.2,2.4,0.4,3.7C341,124.5,341.9,125.3,343.2,125.7z"/>
</g>
<g class="st0">
	<path class="st1" d="M364.9,147.4l-3.4,1.2c0-0.3-0.1-0.6-0.2-0.8c-0.5-1.4-1.3-2.3-2.3-2.8c-1.1-0.5-2.4-0.5-3.9,0.1l-7.3,2.6
		l-1.2-3.5l15.1-5.3l1.2,3.4l-2.2,0.8C362.6,143.3,364,144.8,364.9,147.4z"/>
</g>
<g class="st0">
	<path class="st1" d="M359.6,174.2l-1.9,2.4c-1-0.5-1.8-1.3-2.4-2.3s-1.1-2.2-1.4-3.5c-0.3-1.7-0.3-3.3,0.1-4.8
		c0.4-1.4,1.2-2.6,2.3-3.6c1.1-1,2.4-1.6,4-1.9c1.5-0.3,3-0.2,4.3,0.2c1.4,0.5,2.5,1.2,3.4,2.3s1.5,2.4,1.8,4
		c0.3,1.5,0.2,2.9-0.2,4.2c-0.4,1.3-1.1,2.5-2.2,3.4s-2.4,1.6-4,1.9l-4.7-11.6c-0.8,0.5-1.4,1.3-1.7,2.2c-0.3,0.9-0.4,2-0.1,3.1
		C357.4,172,358.2,173.3,359.6,174.2z M365,164.6c-1-0.7-2.3-0.9-3.8-0.6l0,0l3.4,8.6c0.9-0.4,1.6-1.1,2-2s0.6-1.9,0.3-3
		C366.7,166.3,366,165.3,365,164.6z"/>
</g>
<g class="st0">
	<path class="st1" d="M375.7,221.5c-0.7,1.3-1.7,2.2-2.8,2.9c-1.2,0.6-2.5,0.9-4.1,0.7c-1.5-0.1-2.8-0.6-3.9-1.4
		c-1.1-0.8-1.8-1.9-2.3-3.3c-0.5-1.4-0.6-3-0.5-4.8l0.4-4.7l-6-0.5l0.4-3.9l20.9,1.9L377,217C376.9,218.6,376.4,220.2,375.7,221.5z
		 M366.2,219.5c0.6,0.9,1.6,1.5,3,1.6s2.4-0.2,3.2-1c0.8-0.8,1.3-2.1,1.4-3.8l0.4-4.5l-8.3-0.8l-0.4,4.5
		C365.3,217.3,365.6,218.6,366.2,219.5z"/>
</g>
<g class="st0">
	<path class="st1" d="M349.2,228.8l2.5,1.7c-0.5,0.4-0.9,1.1-1.1,2c-0.2,0.7-0.1,1.3,0.2,1.7c0.3,0.5,0.9,0.8,1.7,1l15.9,3.9
		l-0.9,3.6l-15.9-3.8c-1.7-0.4-3-1.2-3.7-2.4c-0.8-1.2-0.9-2.6-0.5-4.4C347.8,230.6,348.4,229.5,349.2,228.8z M371.6,240
		c0.5-0.3,1.1-0.4,1.7-0.3c0.6,0.2,1.1,0.5,1.4,1s0.4,1.2,0.2,1.8c-0.2,0.7-0.5,1.2-1,1.5c-0.5,0.4-1.1,0.5-1.7,0.3s-1.1-0.5-1.5-1
		c-0.3-0.5-0.4-1.2-0.2-1.8C370.7,240.8,371.1,240.3,371.6,240z"/>
</g>
<g class="st0">
	<path class="st1" d="M354.1,286.2c-1.9,0.7-4,0.4-6.5-0.7l-11.8-5.5l1.6-3.5l11.7,5.4c1.5,0.7,2.8,0.8,4,0.4c1.1-0.4,2-1.3,2.6-2.6
		c0.7-1.4,0.8-2.7,0.4-3.9c-0.4-1.2-1.4-2.2-3.1-3l-11.4-5.3l1.6-3.5l11.7,5.4c1.5,0.7,2.8,0.9,3.9,0.5s1.9-1.2,2.5-2.5
		c0.7-1.4,0.8-2.8,0.4-4s-1.4-2.2-3.1-3l-11.4-5.3l1.6-3.5l19.1,8.8l-1.6,3.4l-2.5-1.2c0.6,1,0.9,2.1,1,3.3s-0.3,2.5-0.9,3.8
		s-1.4,2.4-2.4,3.2c-1,0.8-2,1.2-3.2,1.3c0.6,1.1,0.9,2.3,0.9,3.6c0,1.3-0.3,2.7-0.9,4C357.4,284.1,355.9,285.6,354.1,286.2z"/>
</g>
<g class="st0">
	<path class="st1" d="M315.5,319.2l3.7-3.8l-3.8-3.6l2.2-2.3l3.8,3.6l3.7-3.8l2.2,2.1l-3.7,3.8l3.8,3.6l-2.2,2.3l-3.8-3.6l-3.7,3.8
		L315.5,319.2z"/>
</g>
<g class="st0">
	<path class="st1" d="M281.1,358.6l-10.5-18.3l3.3-1.9l1.3,2.3c0.2-2.4,1.7-4.4,4.3-5.9c2.2-1.2,4.2-1.5,6.3-0.9s3.7,2.2,5.1,4.7
		l6.2,10.8l-3.4,2l-6.1-10.7c-0.9-1.6-2-2.6-3.3-3c-1.2-0.4-2.6-0.2-3.9,0.6c-1.5,0.8-2.4,1.9-2.7,3.3c-0.4,1.4,0,2.9,1,4.7
		l5.9,10.3L281.1,358.6z"/>
</g>
<g class="st0">
	<path class="st1" d="M258.7,364.5l-5-13.6l-3.6,1.3l-1.1-3.1l10.9-4l1.1,3.1l-3.6,1.3l5,13.6l3.6-1.3l1.1,3.1l-10.9,4l-1.1-3.1
		L258.7,364.5z"/>
</g>
<g class="st0">
	<path class="st1" d="M207.9,379.3l-2-22.3l3.6-0.3l0.2,2.1c0.6-0.8,1.3-1.5,2.1-1.9c0.9-0.5,1.9-0.7,3-0.8c1.5-0.1,3,0.1,4.2,0.6
		c1.3,0.6,2.3,1.4,3.2,2.6s1.3,2.6,1.4,4.2c0.1,1.6-0.1,3.1-0.7,4.4c-0.6,1.3-1.5,2.3-2.6,3.1c-1.2,0.8-2.5,1.3-4.1,1.4
		c-1.1,0.1-2,0-3-0.3c-0.9-0.3-1.7-0.8-2.4-1.4l0.7,8.2L207.9,379.3z M212.2,360.1c-0.7,0.5-1.2,1.1-1.6,1.9
		c-0.4,0.8-0.5,1.7-0.4,2.7s0.4,1.9,0.9,2.6s1.1,1.3,1.9,1.6c0.8,0.3,1.6,0.5,2.5,0.4s1.7-0.4,2.4-0.8c0.7-0.5,1.2-1.1,1.6-1.9
		c0.4-0.8,0.5-1.7,0.4-2.7s-0.4-1.9-0.9-2.6s-1.1-1.3-1.9-1.6c-0.8-0.3-1.6-0.5-2.5-0.4C213.7,359.3,212.9,359.6,212.2,360.1z"/>
</g>
<g class="st0">
	<path class="st1" d="M180.8,360.5L179,358c0.8-0.8,1.7-1.4,2.9-1.7c1.1-0.3,2.4-0.5,3.8-0.3c1.8,0.2,3.3,0.6,4.5,1.4
		c1.3,0.8,2.2,1.9,2.8,3.2c0.6,1.3,0.9,2.8,0.7,4.3c-0.1,1.6-0.6,2.9-1.4,4.1c-0.8,1.2-1.9,2.1-3.2,2.7s-2.7,0.8-4.3,0.7
		c-1.5-0.1-2.8-0.6-4-1.3c-1.2-0.8-2.1-1.8-2.7-3c-0.6-1.3-0.9-2.7-0.7-4.3l12.4-1.3c-0.3-0.9-0.8-1.7-1.6-2.2s-1.8-0.9-3-1
		C183.6,359,182.1,359.5,180.8,360.5z M188.6,368.3c0.9-0.8,1.5-2,1.6-3.5l0,0l-9.2,1c0.2,1,0.6,1.8,1.4,2.5c0.7,0.7,1.7,1,2.8,1.1
		C186.5,369.5,187.7,369.2,188.6,368.3z"/>
</g>
<g class="st0">
	<path class="st1" d="M165.7,353.4c1.1,0.6,2,1.3,2.6,2l-2.1,2.4c-0.6-0.6-1.3-1.2-2.2-1.8c-0.9-0.5-1.8-0.9-2.8-1.1
		c-2.2-0.5-3.4-0.2-3.7,0.9c-0.1,0.5,0,1,0.5,1.3c0.5,0.4,1.3,0.8,2.5,1.3s2.2,1,3,1.5c0.7,0.5,1.3,1.1,1.8,1.8
		c0.4,0.8,0.5,1.7,0.2,2.9c-0.4,1.5-1.3,2.5-2.7,3.1c-1.5,0.6-3.2,0.6-5.3,0.1c-1.1-0.3-2.1-0.7-3.1-1.2s-1.8-1.1-2.4-1.6l2.1-2.4
		c1.1,1.1,2.5,1.9,4.2,2.3c1.1,0.3,1.9,0.3,2.6,0.1c0.6-0.2,1-0.5,1.1-1.1s0-1.1-0.6-1.5c-0.5-0.4-1.4-0.8-2.6-1.4
		c-1.2-0.5-2.2-1-2.9-1.4c-0.7-0.5-1.3-1-1.7-1.8c-0.4-0.7-0.5-1.7-0.2-2.8c0.4-1.5,1.3-2.5,2.8-3c1.5-0.6,3.3-0.6,5.5,0
		C163.4,352.3,164.6,352.8,165.7,353.4z"/>
</g>
<g class="st0">
	<path class="st1" d="M137.2,364.6c0.3,0.6,0.3,1.2,0.1,1.7c-0.2,0.6-0.6,1-1.2,1.2c-0.6,0.2-1.2,0.2-1.8,0s-1.1-0.6-1.4-1.2
		c-0.3-0.5-0.3-1.1-0.1-1.7s0.7-1,1.2-1.3c0.6-0.3,1.2-0.3,1.9,0C136.4,363.6,136.9,364,137.2,364.6z M138.5,361.6l-3.5-1.4
		l5.9-14.9l3.5,1.4L138.5,361.6z"/>
</g>
<g class="st0">
	<path class="st1" d="M107.3,346.2l6.8-11.8c2.8-4.9,6.7-5.9,11.7-3c1.3,0.8,2.5,1.7,3.5,2.7s1.7,2.1,2.1,3.2l-2.9,1.6
		c-0.3-0.9-0.9-1.7-1.6-2.5c-0.8-0.8-1.6-1.5-2.6-2.1c-1.5-0.9-2.8-1.2-4-0.9c-1.1,0.3-2.1,1.1-2.9,2.6l-0.4,0.7
		c0.9-0.3,1.8-0.4,2.8-0.2c1,0.1,1.9,0.5,2.9,1c1.3,0.8,2.4,1.7,3.1,2.9c0.7,1.2,1.1,2.5,1.2,3.8c0,1.4-0.3,2.7-1.1,4
		c-0.8,1.3-1.7,2.3-2.9,3c-1.2,0.7-2.5,1-3.9,0.9s-2.7-0.5-4.1-1.2c-1-0.6-1.8-1.3-2.5-2.1c-0.6-0.8-1-1.7-1.2-2.7l-1.1,1.8
		L107.3,346.2z M117.1,339.3c-1.2,0.3-2.2,1-2.8,2.2c-0.7,1.2-0.8,2.3-0.4,3.5s1.2,2.1,2.4,2.8c1.2,0.7,2.5,0.9,3.7,0.7
		c1.2-0.3,2.1-1,2.8-2.2c0.7-1.2,0.8-2.4,0.5-3.6c-0.4-1.2-1.2-2.1-2.4-2.9C119.5,339.2,118.3,339,117.1,339.3z"/>
</g>
<g class="st0">
	<path class="st1" d="M84.9,327c-0.2-1.7,0.5-3.4,2-5.2l5.9-7l2.9,2.4l-5.6,6.6c-0.9,1.1-1.3,2.1-1.3,3.1s0.5,1.8,1.5,2.6
		c1.1,0.9,2.2,1.3,3.3,1.2c1.1-0.1,2.2-0.8,3.2-2l5.2-6.2l2.9,2.4l-10.3,12.2l-2.7-2.3l1.3-1.6c-1,0.2-1.9,0.1-2.9-0.2
		c-1-0.3-1.9-0.9-2.8-1.6C85.9,330.1,85,328.6,84.9,327z"/>
</g>
<g class="st0">
	<path class="st1" d="M72.6,299.5l0.5-3c1.1,0,2.2,0.3,3.2,0.8c1,0.6,2,1.4,2.9,2.4c1.1,1.4,1.9,2.8,2.2,4.2
		c0.3,1.5,0.2,2.9-0.3,4.3s-1.3,2.5-2.6,3.6c-1.2,1-2.5,1.6-3.9,1.9s-2.8,0.1-4.1-0.4c-1.3-0.5-2.5-1.4-3.5-2.6s-1.6-2.4-1.9-3.8
		s-0.2-2.7,0.3-4s1.3-2.5,2.6-3.5l9.7,7.9c0.5-0.9,0.6-1.8,0.4-2.8s-0.6-1.9-1.4-2.8C75.6,300.4,74.2,299.6,72.6,299.5z M72.5,310.5
		c1.2,0.1,2.4-0.4,3.6-1.3l0,0l-7.1-5.8c-0.6,0.8-0.9,1.7-0.8,2.7c0,1,0.4,1.9,1.1,2.8C70.2,309.8,71.2,310.4,72.5,310.5z"/>
</g>
<g class="st0">
	<path class="st1" d="M49,284.9l3.1-1.9c0.1,0.3,0.2,0.6,0.4,0.8c0.8,1.3,1.7,2,2.9,2.3s2.4,0,3.8-0.9l6.7-4l1.9,3.2L54,292.8
		l-1.9-3.1l2-1.2C52.1,288.5,50.4,287.3,49,284.9z"/>
</g>
<g class="st0">
	<path class="st1" d="M39.1,241.1l1.5,5.1l5-1.5l0.9,3.1l-5,1.5l1.5,5.1l-2.9,0.9l-1.5-5.1l-5,1.5l-0.9-3.1l5-1.5l-1.5-5.1
		L39.1,241.1z"/>
</g>
</svg>
