<?xml version="1.0" encoding="utf-8"?>
<!-- Generator: Adobe Illustrator 24.1.3, SVG Export Plug-In . SVG Version: 6.00 Build 0)  -->
<svg version="1.1" id="圖層_1" xmlns="http://www.w3.org/2000/svg" xmlns:xlink="http://www.w3.org/1999/xlink" x="0px" y="0px"
	 viewBox="0 0 400 400" style="enable-background:new 0 0 400 400;" xml:space="preserve">
<style type="text/css">
	.st0{fill:#FFFFFF;}
</style>
<path class="st0" d="M23.1,192.3c0.8-1.4,1.9-2.5,3.3-3.2c1.5-0.7,3.2-1.1,5.3-1.1l11.6,0.2l-0.1,3.9l-5.4-0.1l-0.2,10.9l5.4,0.1
	l-0.1,3.8l-11.6-0.2c-2.1,0-3.8-0.4-5.2-1.2c-1.4-0.8-2.5-1.9-3.2-3.3c-0.7-1.4-1.1-3.1-1-4.9C21.9,195.3,22.3,193.7,23.1,192.3z
	 M34.6,191.9l-3.3-0.1c-1.9,0-3.4,0.4-4.4,1.4c-1,0.9-1.5,2.3-1.5,4c0,1.7,0.4,3.1,1.4,4c1,1,2.4,1.5,4.4,1.5l3.3,0.1L34.6,191.9z"
	/>
<path class="st0" d="M33.5,159.4c1.4-1,3.2-1.2,5.5-0.7l9,1.8l-0.8,3.7l-8.5-1.7c-1.4-0.3-2.5-0.2-3.3,0.3s-1.4,1.4-1.6,2.5
	c-0.3,1.4-0.1,2.5,0.6,3.5c0.7,1,1.7,1.6,3.3,1.9l7.9,1.6l-0.8,3.7l-15.7-3.2l0.7-3.5l2,0.4c-0.6-0.8-1-1.6-1.2-2.6
	c-0.2-1-0.2-2.1,0.1-3.2C31.2,161.8,32.1,160.4,33.5,159.4z"/>
<path class="st0" d="M33.6,142.2c-0.6,0.3-1.1,0.3-1.7,0.1c-0.6-0.2-1-0.6-1.3-1.2c-0.2-0.6-0.3-1.2,0-1.8c0.2-0.6,0.6-1.1,1.2-1.4
	c0.5-0.3,1.1-0.3,1.7-0.1c0.6,0.2,1.1,0.6,1.3,1.2s0.3,1.2,0.1,1.9C34.5,141.5,34.1,141.9,33.6,142.2z M36.6,143.5l1.3-3.5l15.1,5.4
	l-1.3,3.5L36.6,143.5z"/>
<path class="st0" d="M57,105c1.6-0.4,3.4-0.1,5.4,1.1l8,4.6l-1.9,3.3l-7.6-4.3c-1.2-0.7-2.3-0.9-3.2-0.8c-0.9,0.2-1.7,0.8-2.2,1.8
	c-0.6,1.1-0.8,2.2-0.4,3.2s1.2,2,2.5,2.8l7.1,4l-1.9,3.3l-7.6-4.3c-1.2-0.7-2.3-0.9-3.2-0.8c-0.9,0.2-1.7,0.8-2.2,1.8
	c-0.6,1.1-0.8,2.2-0.4,3.3c0.3,1.1,1.2,2,2.5,2.7l7.1,4l-1.9,3.3L43.2,126l1.8-3.1l1.8,1c-0.3-0.9-0.4-1.8-0.3-2.8
	c0.1-1,0.4-1.9,1-2.9c0.6-1,1.3-1.9,2.2-2.4c0.9-0.6,1.8-0.9,2.8-0.9c-0.4-1-0.5-2.1-0.4-3.2c0.1-1.1,0.5-2.3,1.1-3.3
	C54.1,106.6,55.4,105.5,57,105z"/>
<path class="st0" d="M76.4,78.9l11.9,10.7L86,92.2l-1.5-1.4c0.2,1,0.1,1.9-0.3,2.9c-0.3,0.9-0.9,1.8-1.6,2.6c-1,1.2-2.2,2-3.6,2.4
	c-1.3,0.5-2.7,0.5-4.1,0.2c-1.4-0.3-2.7-1-3.9-2.1c-1.2-1.1-2.1-2.3-2.5-3.6c-0.5-1.3-0.5-2.7-0.2-4.1c0.3-1.4,1-2.6,2-3.8
	c0.7-0.8,1.5-1.4,2.3-1.8c0.8-0.4,1.7-0.6,2.7-0.6l-1.5-1.3L76.4,78.9z M81.7,90.4c-0.1-1.3-0.7-2.4-1.8-3.4c-1.1-1-2.3-1.5-3.6-1.4
	c-1.3,0.1-2.4,0.6-3.3,1.6c-0.9,1-1.3,2.2-1.2,3.5c0.1,1.3,0.7,2.4,1.8,3.4c1.1,1,2.3,1.5,3.6,1.4c1.3,0,2.4-0.6,3.3-1.6
	C81.4,92.8,81.8,91.7,81.7,90.4z"/>
<path class="st0" d="M103.8,74.9c-0.1,0.6-0.4,1.1-0.7,1.6c-0.4,0.5-0.8,1-1.4,1.5c-1.4,1.1-2.7,1.6-4,1.5c-1.3-0.1-2.5-0.8-3.7-2.2
	l-9.1-11.1l2.9-2.4l2.3,2.8l3.3-2.7l1.9,2.3L92,69l4.9,5.9c0.5,0.6,1,0.9,1.6,1c0.6,0.1,1.1-0.1,1.7-0.6c0.6-0.5,1-1.1,1.2-1.8
	L103.8,74.9z"/>
<path class="st0" d="M114.4,67.5c-1.5,0.1-2.8-0.2-4.1-0.9c-1.3-0.7-2.3-1.7-3.1-3.1s-1.2-2.7-1.3-4.2c0-1.4,0.3-2.8,1.1-4.1
	c0.7-1.3,1.8-2.3,3.2-3.2c1.4-0.9,2.8-1.3,4.3-1.4c1.5-0.1,2.8,0.2,4.1,0.9c1.3,0.7,2.3,1.7,3.1,3c0.8,1.4,1.2,2.7,1.3,4.2
	c0,1.4-0.3,2.8-1.1,4.1c-0.7,1.3-1.8,2.3-3.2,3.2C117.3,67,115.9,67.4,114.4,67.5z M119.2,60.4c0.3-1.3,0-2.5-0.7-3.8
	c-0.8-1.3-1.8-2.1-3-2.4c-1.2-0.3-2.5-0.1-3.6,0.6c-1.2,0.7-1.9,1.7-2.2,2.9c-0.3,1.2,0,2.5,0.7,3.8c0.8,1.3,1.8,2.1,3,2.4
	c1.2,0.3,2.4,0.1,3.6-0.6C118.2,62.7,118.9,61.7,119.2,60.4z"/>
<path class="st0" d="M138.1,38.3l1.4,3.3c-0.3,0.1-0.6,0.2-0.8,0.3c-1.3,0.6-2.2,1.4-2.7,2.5c-0.4,1.1-0.3,2.4,0.3,3.9l3,7.2
	l-3.5,1.5L129.6,42l3.3-1.4l0.9,2.2C134.2,40.9,135.6,39.3,138.1,38.3z"/>
<path class="st0" d="M181.7,35l-5.2,0.8l0.8,5.2l-3.2,0.5l-0.8-5.2l-5.2,0.8l-0.5-3l5.2-0.8l-0.8-5.2l3.2-0.5l0.8,5.2l5.2-0.8
	L181.7,35z"/>
<path class="st0" d="M211.8,43.3c-1.2-0.5-2.1-1-2.8-1.6l1.7-2.7c0.7,0.5,1.5,1,2.5,1.4c1,0.4,2,0.6,2.9,0.7
	c2.2,0.2,3.4-0.3,3.5-1.4c0.1-0.6-0.2-1-0.7-1.2c-0.5-0.3-1.4-0.6-2.7-0.9c-1.3-0.3-2.3-0.7-3.1-1c-0.8-0.3-1.5-0.9-2-1.6
	s-0.8-1.6-0.6-2.8c0.2-1.5,0.9-2.7,2.3-3.4c1.4-0.8,3.1-1.1,5.3-0.8c1.1,0.1,2.2,0.3,3.2,0.7c1.1,0.4,1.9,0.8,2.6,1.3l-1.7,2.7
	c-1.3-0.9-2.8-1.5-4.4-1.7c-1.1-0.1-1.9,0-2.5,0.2c-0.6,0.3-0.9,0.7-1,1.2c-0.1,0.6,0.2,1.1,0.8,1.4c0.6,0.3,1.5,0.6,2.8,1
	c1.3,0.3,2.3,0.7,3.1,1c0.8,0.3,1.4,0.8,2,1.5s0.7,1.6,0.6,2.7c-0.1,1.5-0.9,2.6-2.3,3.4c-1.4,0.8-3.2,1-5.4,0.8
	C214.3,44,213,43.7,211.8,43.3z"/>
<path class="st0" d="M236.1,46.4c-1.1-1-1.8-2.2-2.2-3.6c-0.4-1.4-0.4-2.9,0-4.4c0.4-1.5,1.1-2.8,2.1-3.8c1-1,2.3-1.7,3.7-2
	c1.4-0.3,2.9-0.3,4.5,0.1c1.6,0.4,2.9,1.1,4,2.1c1.1,1,1.8,2.2,2.2,3.6c0.4,1.4,0.4,2.8,0,4.4c-0.4,1.5-1.1,2.8-2.1,3.8
	c-1,1-2.3,1.7-3.7,2c-1.4,0.3-2.9,0.3-4.5-0.1C238.5,48.2,237.2,47.4,236.1,46.4z M244.6,45c1.1-0.7,1.8-1.7,2.2-3.2
	c0.4-1.5,0.3-2.7-0.4-3.9c-0.6-1.1-1.6-1.9-3-2.2c-1.3-0.4-2.5-0.2-3.6,0.5c-1.1,0.7-1.8,1.7-2.2,3.2c-0.4,1.5-0.3,2.7,0.4,3.9
	s1.6,1.9,2.9,2.2C242.3,45.8,243.5,45.7,244.6,45z"/>
<path class="st0" d="M268.7,40.4l-0.4,0.9l4.1,1.7l-1.2,2.8l-4-1.7l-5,11.9l-3.5-1.5l6.6-15.6c0.7-1.6,1.7-2.6,3-3.1
	c1.3-0.5,2.8-0.4,4.5,0.3c1.3,0.6,2.2,1.3,2.8,2.1l-2.1,2.2c-0.4-0.6-0.9-1.1-1.6-1.4C270.4,38.4,269.3,38.8,268.7,40.4z"/>
<path class="st0" d="M283.3,66c-0.6,0.1-1.2,0.1-1.8-0.1c-0.6-0.2-1.3-0.4-1.9-0.8c-1.5-0.9-2.5-2-2.8-3.2c-0.4-1.3-0.1-2.7,0.8-4.2
	l7.2-12.5l3.3,1.9l-1.8,3.2l3.7,2.1l-1.5,2.6l-3.7-2.1l-3.8,6.6c-0.4,0.7-0.5,1.3-0.4,1.8c0.1,0.6,0.5,1,1.1,1.3
	c0.7,0.4,1.4,0.6,2.1,0.5L283.3,66z"/>
<path class="st0" d="M320.8,75.8l-5.7,6.8c-1.5,1.8-3.1,2.8-4.9,3c-1.8,0.2-3.5-0.4-5.3-1.9c-1.9-1.6-2.7-3.4-2.5-5.3
	c-1,0.3-1.9,0.3-2.8,0.1s-1.9-0.8-2.8-1.6c-1.7-1.5-2.7-3.1-2.8-4.9c-0.1-1.8,0.6-3.5,2.1-5.3l5.7-6.8l2.9,2.4l-5.5,6.5
	c-1,1.2-1.5,2.2-1.6,3.1c-0.1,0.9,0.4,1.7,1.2,2.5c0.9,0.7,1.8,1,2.7,0.8s1.8-0.9,2.8-2l5.5-6.5l2.9,2.4l-5.5,6.5
	c-1,1.1-1.5,2.2-1.5,3.1c0,0.9,0.4,1.8,1.3,2.5s1.8,1,2.6,0.8c0.9-0.2,1.8-0.9,2.8-2.1l5.5-6.5L320.8,75.8z"/>
<path class="st0" d="M340.7,99.3l-12.6,9.9l-2.2-2.8l1.6-1.3c-1,0-1.9-0.3-2.8-0.7c-0.9-0.5-1.6-1.2-2.3-2c-1-1.2-1.6-2.5-1.8-3.9
	s-0.1-2.7,0.5-4c0.5-1.3,1.5-2.5,2.8-3.5c1.3-1,2.6-1.6,4-1.9c1.4-0.2,2.7-0.1,4,0.5c1.3,0.5,2.4,1.4,3.4,2.7
	c0.6,0.8,1.1,1.7,1.3,2.6c0.3,0.9,0.3,1.8,0.2,2.8l1.5-1.2L340.7,99.3z M328.5,102.5c1.3,0.1,2.5-0.3,3.7-1.2c1.2-0.9,1.9-2,2-3.3
	c0.2-1.3-0.2-2.5-1-3.5c-0.9-1.1-1.9-1.7-3.2-1.8c-1.3-0.1-2.5,0.3-3.7,1.2s-1.9,2-2,3.3c-0.2,1.3,0.2,2.4,1,3.5
	C326.1,101.8,327.2,102.4,328.5,102.5z"/>
<path class="st0" d="M353.4,119.7l-3.1,1.8c-0.1-0.3-0.2-0.6-0.4-0.8c-0.7-1.3-1.6-2.1-2.8-2.3c-1.1-0.3-2.4,0-3.8,0.7l-6.8,3.8
	l-1.8-3.3l13.9-7.9l1.8,3.1l-2,1.2C350.4,116.1,352,117.3,353.4,119.7z"/>
<path class="st0" d="M352.5,146.5l-1.4,2.7c-1.1-0.3-2-0.9-2.8-1.8c-0.8-0.9-1.5-1.9-2-3.2c-0.6-1.6-0.9-3.2-0.7-4.7s0.7-2.8,1.6-4
	c0.9-1.1,2.1-2,3.6-2.6c1.5-0.6,2.9-0.7,4.3-0.5c1.4,0.2,2.7,0.8,3.8,1.7c1.1,0.9,1.9,2.1,2.5,3.6c0.5,1.4,0.7,2.8,0.6,4.2
	c-0.2,1.4-0.7,2.6-1.5,3.7s-2.1,2-3.6,2.5l-6.7-10.6c-0.7,0.7-1.2,1.5-1.3,2.5c-0.1,1,0,2,0.4,3.1C350,144.6,351,145.8,352.5,146.5z
	 M356.2,136.1c-1.1-0.5-2.4-0.4-3.8,0.1l0,0l4.9,7.8c0.8-0.6,1.4-1.4,1.6-2.3c0.3-1,0.2-2-0.2-3
	C358.1,137.4,357.3,136.5,356.2,136.1z"/>
<path class="st0" d="M376.7,188.9c-0.5,1.4-1.2,2.5-2.3,3.3c-1,0.8-2.3,1.3-3.9,1.4c-1.5,0.1-2.9-0.1-4.1-0.7
	c-1.2-0.6-2.1-1.6-2.9-2.9c-0.7-1.3-1.2-2.8-1.3-4.7l-0.4-4.7l-6,0.6l-0.4-3.9l20.9-1.9l0.8,8.6
	C377.3,185.8,377.1,187.5,376.7,188.9z M367,188.7c0.8,0.8,1.9,1.2,3.2,1c1.3-0.1,2.3-0.7,3-1.6c0.6-0.9,0.9-2.3,0.7-4l-0.4-4.5
	l-8.3,0.8l0.4,4.5C365.7,186.6,366.2,187.9,367,188.7z"/>
<path class="st0" d="M372.6,237.3c-1.6,1.2-3.7,1.6-6.4,1.2l-12.9-1.7l0.5-3.9l12.7,1.7c1.6,0.2,2.9,0,3.9-0.8s1.5-1.8,1.7-3.2
	c0.2-1.5-0.1-2.8-0.8-3.9c-0.7-1-2-1.7-3.8-1.9l-12.4-1.7l0.5-3.9l12.7,1.7c1.7,0.2,3,0,3.9-0.7c0.9-0.7,1.5-1.7,1.7-3.1
	c0.2-1.6-0.1-2.9-0.8-3.9c-0.8-1.1-2-1.7-3.8-2l-12.4-1.7l0.5-3.9l20.8,2.8l-0.5,3.7l-2.7-0.4c0.9,0.8,1.5,1.7,1.9,2.9
	c0.4,1.2,0.5,2.5,0.3,3.9c-0.2,1.5-0.6,2.7-1.4,3.7c-0.7,1-1.6,1.7-2.7,2.1c0.9,0.8,1.6,1.9,2,3.2c0.4,1.3,0.5,2.6,0.3,4.1
	C375.1,234.4,374.2,236.2,372.6,237.3z"/>
<path class="st0" d="M345.9,279.2l2.3-4.8l-4.7-2.3l1.4-2.9l4.7,2.3l2.3-4.8l2.7,1.3l-2.3,4.8l4.7,2.3l-1.4,2.9l-4.7-2.3l-2.3,4.8
	L345.9,279.2z"/>
<path class="st0" d="M325.9,326l-15.6-14.1l2.5-2.8l2,1.8c-0.5-2.4,0.2-4.7,2.2-6.9c1.7-1.8,3.5-2.8,5.6-2.8c2.1,0,4.2,0.9,6.3,2.8
	l9.2,8.3l-2.6,2.9l-9.1-8.2c-1.4-1.2-2.7-1.9-4-1.8c-1.3,0-2.5,0.6-3.5,1.8c-1.1,1.2-1.6,2.6-1.6,4c0.1,1.4,0.9,2.8,2.3,4.1l8.8,7.9
	L325.9,326z"/>
<path class="st0" d="M306.8,338.1l-9-11.3l-3,2.4l-2-2.6l9.1-7.2l2,2.6l-3,2.4l9,11.3l3-2.4l2,2.6l-9.1,7.2l-2-2.6L306.8,338.1z"/>
<path class="st0" d="M277.7,360.3l-10.1-18.4l3.3-1.8l1.3,2.3c0.3-2.4,1.7-4.3,4.4-5.8c2.2-1.2,4.3-1.5,6.2-0.8c2,0.7,3.7,2.3,5,4.7
	l6,10.9l-3.4,1.9l-5.9-10.7c-0.9-1.6-2-2.6-3.2-3s-2.5-0.2-3.9,0.5c-1.5,0.8-2.4,1.9-2.8,3.3c-0.4,1.4-0.1,2.9,0.9,4.7l5.7,10.4
	L277.7,360.3z"/>
<path class="st0" d="M243.1,350.9l7.9,5.8l2.9-9.3l4.2-1.4l-4.1,12.6l10.2,7.5l-4.2,1.4l-7.4-5.4l-2.7,8.7l-4,1.3l3.9-11.9
	l-10.9-7.9L243.1,350.9z"/>
<path class="st0" d="M198.5,379.3l-0.8-22.2l3.6-0.1l0.1,2.1c0.6-0.8,1.3-1.4,2.2-1.8s1.9-0.6,3-0.7c1.5-0.1,2.9,0.2,4.2,0.9
	c1.3,0.6,2.3,1.6,3,2.8c0.7,1.2,1.1,2.6,1.2,4.3c0.1,1.6-0.2,3.1-0.9,4.3c-0.7,1.3-1.6,2.3-2.8,3c-1.2,0.7-2.6,1.1-4.1,1.2
	c-1.1,0-2-0.1-2.9-0.4c-0.9-0.3-1.7-0.8-2.3-1.5l0.3,8.2L198.5,379.3z M203.8,360.4c-0.7,0.4-1.3,1-1.6,1.8
	c-0.4,0.8-0.6,1.7-0.5,2.7c0,1,0.3,1.9,0.7,2.6c0.4,0.7,1,1.3,1.8,1.7c0.7,0.4,1.6,0.6,2.5,0.5c0.9,0,1.7-0.3,2.4-0.7s1.3-1,1.6-1.8
	c0.4-0.8,0.6-1.7,0.5-2.7c0-1-0.3-1.9-0.7-2.6c-0.4-0.7-1-1.3-1.8-1.7c-0.7-0.4-1.5-0.6-2.5-0.5C205.3,359.8,204.5,360,203.8,360.4z
	"/>
<path class="st0" d="M173,359.4l-1.7-2.6c0.8-0.8,1.8-1.3,2.9-1.6c1.1-0.3,2.4-0.3,3.8-0.2c1.7,0.2,3.2,0.8,4.5,1.7
	c1.2,0.9,2.1,2,2.7,3.3c0.6,1.3,0.7,2.8,0.5,4.4c-0.2,1.5-0.7,2.9-1.6,4c-0.9,1.1-2,2-3.3,2.5s-2.8,0.7-4.3,0.5
	c-1.5-0.2-2.8-0.7-3.9-1.5c-1.1-0.8-2-1.9-2.5-3.2c-0.6-1.3-0.7-2.7-0.5-4.4l12.5-0.7c-0.3-1-0.8-1.7-1.5-2.3
	c-0.8-0.6-1.7-1-2.9-1.1C175.9,358,174.3,358.4,173,359.4z M180.4,367.6c1-0.8,1.5-1.9,1.8-3.4l0,0l-9.2,0.5c0.1,1,0.5,1.9,1.2,2.6
	c0.7,0.7,1.6,1.1,2.7,1.3C178.3,368.7,179.4,368.4,180.4,367.6z"/>
<path class="st0" d="M158.8,351.8c1.1,0.7,1.9,1.4,2.5,2.1l-2.2,2.3c-0.6-0.7-1.3-1.3-2.2-1.9s-1.8-1-2.7-1.3
	c-2.1-0.6-3.4-0.4-3.7,0.7c-0.2,0.5,0,1,0.5,1.4s1.3,0.8,2.4,1.4c1.2,0.6,2.2,1.1,2.9,1.6c0.7,0.5,1.3,1.1,1.7,1.9
	c0.4,0.8,0.4,1.8,0.1,2.9c-0.4,1.5-1.4,2.4-2.9,2.9c-1.5,0.5-3.3,0.5-5.3-0.2c-1.1-0.3-2.1-0.8-3.1-1.3s-1.7-1.1-2.3-1.7l2.2-2.3
	c1.1,1.2,2.4,2,4.1,2.5c1.1,0.3,1.9,0.4,2.5,0.2c0.6-0.2,1-0.5,1.2-1c0.2-0.6,0-1.1-0.5-1.5c-0.5-0.4-1.4-0.9-2.5-1.5
	c-1.2-0.6-2.1-1.1-2.8-1.6c-0.7-0.5-1.3-1.1-1.6-1.9c-0.4-0.8-0.4-1.7-0.1-2.8c0.4-1.4,1.4-2.4,2.9-2.9c1.5-0.5,3.3-0.4,5.5,0.2
	C156.6,350.5,157.7,351.1,158.8,351.8z"/>
<path class="st0" d="M130.4,361.9c0.2,0.6,0.2,1.2,0,1.7c-0.3,0.6-0.7,1-1.3,1.2c-0.6,0.2-1.2,0.2-1.8-0.1c-0.6-0.3-1.1-0.7-1.3-1.3
	s-0.3-1.1,0-1.7c0.3-0.6,0.7-1,1.3-1.2c0.6-0.2,1.2-0.2,1.9,0.1C129.7,360.9,130.1,361.3,130.4,361.9z M131.9,358.9l-3.4-1.5
	l6.5-14.7l3.4,1.5L131.9,358.9z"/>
<path class="st0" d="M101.9,342.5L109,331c3-4.8,6.9-5.7,11.8-2.6c1.3,0.8,2.4,1.8,3.4,2.8c1,1.1,1.6,2.1,2,3.2l-2.9,1.5
	c-0.3-0.9-0.8-1.7-1.5-2.6c-0.7-0.9-1.6-1.6-2.5-2.2c-1.5-0.9-2.8-1.3-3.9-1c-1.1,0.2-2.1,1.1-3,2.5l-0.4,0.7
	c0.9-0.3,1.9-0.3,2.8-0.1s1.9,0.6,2.9,1.1c1.3,0.8,2.3,1.8,3,3c0.7,1.2,1,2.5,1,3.9c0,1.4-0.4,2.7-1.2,4c-0.8,1.3-1.8,2.2-3,2.9
	c-1.2,0.6-2.5,0.9-3.9,0.8c-1.4-0.1-2.7-0.6-4-1.4c-1-0.6-1.8-1.3-2.4-2.2c-0.6-0.8-1-1.7-1.1-2.7l-1.1,1.8L101.9,342.5z M111.9,336
	c-1.2,0.2-2.2,0.9-2.9,2.1c-0.7,1.1-0.9,2.3-0.6,3.5c0.3,1.2,1.1,2.2,2.3,2.9c1.2,0.8,2.4,1,3.7,0.8c1.2-0.2,2.2-0.9,2.9-2.1
	c0.7-1.2,0.9-2.3,0.6-3.5c-0.3-1.2-1.1-2.2-2.3-2.9C114.3,336,113.1,335.8,111.9,336z"/>
<path class="st0" d="M80.6,323c-0.1-1.7,0.6-3.4,2.2-5.1l6.2-6.8l2.8,2.5l-5.8,6.5c-0.9,1-1.4,2-1.4,3c0,1,0.5,1.9,1.4,2.7
	c1,0.9,2.1,1.3,3.3,1.3s2.2-0.7,3.3-1.9l5.4-6l2.8,2.5l-10.7,11.9l-2.6-2.4l1.4-1.5c-1,0.1-1.9,0-2.9-0.3c-1-0.3-1.9-0.9-2.7-1.7
	C81.5,326.2,80.7,324.7,80.6,323z"/>
<path class="st0" d="M69.6,295.5l0.6-3c1.1,0,2.2,0.3,3.2,0.9c1,0.6,2,1.4,2.8,2.5c1.1,1.4,1.8,2.8,2,4.3c0.3,1.5,0.1,2.9-0.4,4.2
	c-0.5,1.3-1.4,2.5-2.7,3.5c-1.2,1-2.6,1.5-4,1.8c-1.4,0.2-2.8,0-4.1-0.5c-1.3-0.6-2.5-1.5-3.4-2.7c-0.9-1.2-1.5-2.5-1.8-3.8
	c-0.2-1.4-0.1-2.7,0.4-4c0.5-1.3,1.4-2.5,2.7-3.5l9.5,8.2c0.5-0.9,0.7-1.8,0.5-2.7c-0.1-1-0.6-1.9-1.3-2.8
	C72.6,296.5,71.2,295.7,69.6,295.5z M69.2,306.6c1.2,0.1,2.4-0.3,3.6-1.2l0,0l-7-6.1c-0.6,0.8-0.9,1.7-0.9,2.7c0,1,0.4,1.9,1.1,2.8
	C66.9,305.8,67.9,306.4,69.2,306.6z"/>
<path class="st0" d="M46.9,280.9l3.1-1.8c0.1,0.3,0.2,0.6,0.4,0.8c0.7,1.3,1.7,2,2.8,2.3c1.1,0.3,2.4,0,3.8-0.8l6.7-3.8l1.9,3.3
	l-13.9,7.9l-1.8-3.1l2-1.2C49.9,284.5,48.3,283.3,46.9,280.9z"/>
<path class="st0" d="M38.4,238l1.4,5.1l5.1-1.4l0.9,3.1l-5.1,1.4l1.4,5.1l-2.9,0.8l-1.4-5.1l-5.1,1.4l-0.9-3.1l5.1-1.4l-1.4-5.1
	L38.4,238z"/>
</svg>
