<?xml version="1.0" encoding="utf-8"?>
<!-- Generator: Adobe Illustrator 24.1.3, SVG Export Plug-In . SVG Version: 6.00 Build 0)  -->
<svg version="1.1" id="圖層_1" xmlns="http://www.w3.org/2000/svg" xmlns:xlink="http://www.w3.org/1999/xlink" x="0px" y="0px"
	 viewBox="0 0 400 400" style="enable-background:new 0 0 400 400;" xml:space="preserve">
<style type="text/css">
	.st0{enable-background:new    ;}
	.st1{fill:#FFFFFF;}
</style>
<g class="st0">
	<path class="st1" d="M142.8,213.8c-3.1,3.5-7.4,5.7-13,6.7l10.8,19.2h-1.8l-10.7-18.9c-1.5,0.2-3.3,0.3-5.3,0.3h-17.3l-3.7,18.6
		h-1.5l10.8-54.1h18.2c5.7,0,10.2,1.3,13.3,3.8c3.2,2.5,4.8,6,4.8,10.6C147.4,205.7,145.9,210.3,142.8,213.8z M139.9,214.6
		c4-3.4,6-8.2,6-14.7c0-4.1-1.4-7.3-4.3-9.5c-2.8-2.2-6.9-3.4-12.2-3.4h-17l-6.5,32.6h16.9C130.2,219.6,135.9,218,139.9,214.6z"/>
	<path class="st1" d="M199.9,237.7l-0.1,1.5c-0.5,0.2-1.2,0.4-2,0.5c-0.8,0.2-1.5,0.2-2.2,0.2c-2.4,0-4.3-0.6-5.6-1.9
		c-1.3-1.3-2-3-2-5.2c0-0.8,0.1-1.8,0.4-2.9c-1.9,3.4-4.4,5.9-7.4,7.6c-3,1.7-6.5,2.5-10.4,2.5c-4.5,0-8-1.1-10.3-3.3
		s-3.5-5.2-3.5-9c0-1.4,0.2-2.8,0.5-4.3l4.7-23.6h1.5l-4.7,23.6c-0.3,1.4-0.5,2.8-0.5,4.2c0,3.5,1.1,6.2,3.2,8.1
		c2.1,1.9,5.2,2.9,9.3,2.9c5.1,0,9.3-1.4,12.6-4.3c3.4-2.8,5.6-6.9,6.7-12.3l4.4-22.2h1.5l-6,29.8c-0.2,1-0.3,2-0.3,3c0,4,2,6,6,6
		C197.3,238.4,198.7,238.2,199.9,237.7z"/>
	<path class="st1" d="M244.1,202.8c2.4,2.2,3.6,5.2,3.6,9c0,1.3-0.2,2.8-0.5,4.3l-4.7,23.6H241l4.7-23.6c0.3-1.5,0.5-2.9,0.5-4.1
		c0-3.5-1.1-6.2-3.2-8.2c-2.1-1.9-5.3-2.9-9.4-2.9c-5.1,0-9.3,1.4-12.7,4.3c-3.4,2.8-5.6,6.9-6.7,12.3l-4.4,22.2h-1.5l8-40h1.5
		l-1.9,9.7c3.8-6.7,9.7-10,17.9-10C238.2,199.5,241.7,200.6,244.1,202.8z"/>
	<path class="st1" d="M302.5,199.7l-7.3,36.4c-1.3,6.6-3.7,11.4-7.2,14.3c-3.5,3-8.4,4.4-14.8,4.4c-3.6,0-6.9-0.6-9.7-1.7
		c-2.9-1.2-5.2-2.8-7-4.9l1.4-1.1c1.6,2.1,3.7,3.6,6.4,4.7c2.7,1.1,5.7,1.6,9,1.6c5.8,0,10.3-1.4,13.6-4.1c3.3-2.8,5.6-7.1,6.7-13
		l1.8-8.9c-2,3.4-4.6,6.1-8,8s-7.1,2.9-11.4,2.9c-5.3,0-9.5-1.4-12.6-4.2s-4.6-6.6-4.6-11.4c0-4.4,1-8.4,2.9-11.9
		c2-3.6,4.7-6.3,8.1-8.4c3.5-2,7.3-3,11.7-3c4.8,0,8.7,1.2,11.6,3.5s4.6,5.6,5.1,9.7l2.6-13L302.5,199.7L302.5,199.7z M287,234.1
		c3.2-1.9,5.7-4.5,7.5-7.8s2.7-7,2.7-11.1c0-4.5-1.4-8-4.2-10.5s-6.7-3.7-11.7-3.7c-4,0-7.6,0.9-10.8,2.8c-3.2,1.9-5.7,4.5-7.5,7.8
		s-2.7,7-2.7,11.1c0,4.5,1.4,8,4.2,10.5c2.8,2.5,6.7,3.7,11.7,3.7C280.2,236.9,283.8,235.9,287,234.1z"/>
</g>
<g class="st0">
	<path class="st1" d="M200.5,192.1c-2.3-1.4-4-3.2-4.9-5.6l1.4-0.8c1,2.2,2.5,3.9,4.5,5.1c2,1.2,4.4,1.9,7.2,1.9
		c3.7,0,6.7-1.1,8.9-3.2c2.2-2.1,3.8-5.7,4.8-10.7l9-45.2h-20.3l0.3-1.5h21.8l-9.4,47.2c-1,5.4-2.8,9.2-5.3,11.5s-5.9,3.4-10.1,3.4
		C205.5,194.2,202.8,193.5,200.5,192.1z"/>
	<path class="st1" d="M249.2,146.2h1.5l-8,40h-1.5L249.2,146.2z M251.1,134.6c-0.4-0.4-0.5-0.8-0.5-1.3c0-0.6,0.2-1.1,0.7-1.5
		c0.4-0.4,0.9-0.7,1.5-0.7c0.5,0,1,0.2,1.3,0.5c0.4,0.4,0.5,0.8,0.5,1.3c0,0.6-0.2,1.1-0.7,1.5c-0.4,0.4-0.9,0.7-1.5,0.7
		C251.9,135.2,251.4,135,251.1,134.6z"/>
</g>
</svg>
