<svg width="120" height="120" viewBox="0 0 120 120" fill="none" xmlns="http://www.w3.org/2000/svg">
<rect width="120" height="120" rx="60" fill="#EBFB74"/>
<path fill-rule="evenodd" clip-rule="evenodd" d="M35.625 43.125C35.625 41.1359 36.4152 39.2282 37.8217 37.8217C39.2282 36.4152 41.1359 35.625 43.125 35.625H48.75C50.7391 35.625 52.6468 36.4152 54.0533 37.8217C55.4598 39.2282 56.25 41.1359 56.25 43.125V76.875C56.25 78.8641 55.4598 80.7718 54.0533 82.1783C52.6468 83.5848 50.7391 84.375 48.75 84.375H43.125C41.1359 84.375 39.2282 83.5848 37.8217 82.1783C36.4152 80.7718 35.625 78.8641 35.625 76.875V43.125ZM63.75 43.125C63.75 41.1359 64.5402 39.2282 65.9467 37.8217C67.3532 36.4152 69.2609 35.625 71.25 35.625H76.875C78.8641 35.625 80.7718 36.4152 82.1783 37.8217C83.5848 39.2282 84.375 41.1359 84.375 43.125V76.875C84.375 78.8641 83.5848 80.7718 82.1783 82.1783C80.7718 83.5848 78.8641 84.375 76.875 84.375H71.25C69.2609 84.375 67.3532 83.5848 65.9467 82.1783C64.5402 80.7718 63.75 78.8641 63.75 76.875V43.125Z" fill="black"/>
</svg>
